<svg width="1558" height="419" xmlns="http://www.w3.org/2000/svg" xmlns:xlink="http://www.w3.org/1999/xlink" xml:space="preserve" overflow="hidden"><g transform="translate(-1554 -820)"><text font-family="Nirmala UI,Nirmala UI_MSFontService,sans-serif" font-weight="700" font-size="147" transform="matrix(1 0 0 1 1907.04 1007)">LogoDaleel.com</text><text font-family="Nirmala UI Semilight,Nirmala UI Semilight_MSFontService,sans-serif" font-weight="700" font-size="110" transform="matrix(1 0 0 1 1907.04 1147)">SAUDI ARABIA</text><rect x="1561" y="864" width="313" height="312" stroke="#000000" stroke-width="13.75" stroke-miterlimit="8" fill="none"/><text font-family="Cascadia Mono SemiBold,Cascadia Mono SemiBold_MSFontService,sans-serif" font-weight="600" font-size="73" direction="rtl" writing-mode="rl-tb" transform="matrix(1 0 0 1 1668.85 951)" x="171.875">لوغو</text><text font-family="Cascadia Mono SemiBold,Cascadia Mono SemiBold_MSFontService,sans-serif" font-weight="600" font-size="73" transform="matrix(1 0 0 1 1840.75 951)"> </text><text font-family="Cascadia Mono SemiBold,Cascadia Mono SemiBold_MSFontService,sans-serif" font-weight="600" font-size="73" direction="rtl" writing-mode="rl-tb" transform="matrix(1 0 0 1 1668.85 1039)" x="171.875">دليل</text><text font-family="Cascadia Mono SemiBold,Cascadia Mono SemiBold_MSFontService,sans-serif" font-weight="600" font-size="73" transform="matrix(1 0 0 1 1840.75 1039)"> </text><text font-family="Cascadia Mono SemiBold,Cascadia Mono SemiBold_MSFontService,sans-serif" font-weight="600" font-size="73" direction="rtl" writing-mode="rl-tb" transform="matrix(1 0 0 1 1797.76 1127)" x="42.9688">.</text><text font-family="Cascadia Mono SemiBold,Cascadia Mono SemiBold_MSFontService,sans-serif" font-weight="600" font-size="73" direction="rtl" writing-mode="rl-tb" transform="matrix(1 0 0 1 1668.85 1127)" x="128.906">كوم</text><text font-family="Cascadia Mono SemiBold,Cascadia Mono SemiBold_MSFontService,sans-serif" font-weight="600" font-size="73" transform="matrix(1 0 0 1 1840.75 1127)"> </text></g></svg>
